<svg width="500" height="373" viewBox="0 0 500 373" fill="none" xmlns="http://www.w3.org/2000/svg">
<g clip-path="url(#clip0_390_195)">
<path d="M500 327.45H0V327.7H500V327.45Z" fill="#EBEBEB"/>
<path d="M237.01 282.85H43.91C40.76 282.85 38.2 280.29 38.2 277.14V5.71C38.2 2.56 40.76 0 43.91 0H237.01C240.16 0 242.72 2.56 242.72 5.71V277.14C242.72 280.29 240.16 282.85 237.01 282.85ZM43.91 0.25C40.9 0.25 38.45 2.7 38.45 5.71V277.14C38.45 280.15 40.9 282.6 43.91 282.6H237.01C240.02 282.6 242.47 280.15 242.47 277.14V5.71C242.47 2.7 240.02 0.25 237.01 0.25H43.91Z" fill="#EBEBEB"/>
<path d="M453.31 282.85H260.21C257.06 282.85 254.5 280.29 254.5 277.14V5.71C254.5 2.56 257.06 0 260.21 0H453.31C456.46 0 459.02 2.56 459.02 5.71V277.14C459.02 280.29 456.46 282.85 453.31 282.85ZM260.21 0.25C257.2 0.25 254.75 2.7 254.75 5.71V277.14C254.75 280.15 257.2 282.6 260.21 282.6H453.31C456.32 282.6 458.77 280.15 458.77 277.14V5.71C458.77 2.7 456.32 0.25 453.31 0.25H260.21Z" fill="#EBEBEB"/>
<path d="M200.44 336.97H174.44V337.22H200.44V336.97Z" fill="#EBEBEB"/>
<path d="M106.56 334.26H52.46V334.51H106.56V334.26Z" fill="#EBEBEB"/>
<path d="M173.44 346.26H147.12V346.51H173.44V346.26Z" fill="#EBEBEB"/>
<path d="M297.06 344.58H258.23V344.83H297.06V344.58Z" fill="#EBEBEB"/>
<path d="M316.65 344.58H305.96V344.83H316.65V344.58Z" fill="#EBEBEB"/>
<path d="M449.91 340.35H395.35V340.6H449.91V340.35Z" fill="#EBEBEB"/>
<path d="M225.3 36.3H76.9199V192.88H225.3V36.3Z" fill="#E6E6E6"/>
<path d="M241.21 31.23H67.32C66.51 31.23 65.85 31.89 65.85 32.7C65.85 33.51 66.51 34.17 67.32 34.17H241.21C242.02 34.17 242.68 33.51 242.68 32.7C242.68 31.89 242.02 31.23 241.21 31.23Z" fill="#E6E6E6"/>
<path d="M231.61 36.3H79.87V192.88H231.61V36.3Z" fill="#F0F0F0"/>
<path d="M225.3 192.88H76.9199V198.73H225.3V192.88Z" fill="#E6E6E6"/>
<path d="M242.09 192.88H90.35V198.73H242.09V192.88Z" fill="#F0F0F0"/>
<path d="M222.79 184.07V45.12L88.68 45.12V184.07H222.79Z" fill="#FAFAFA"/>
<path d="M119.12 184.07L170.86 45.11H195.28L143.55 184.07H119.12Z" fill="white"/>
<path d="M148.79 184.07L200.53 45.11H210.05L158.31 184.07H148.79Z" fill="white"/>
<path d="M222.79 184.06V45.11H221.67V184.06H222.79Z" fill="#E6E6E6"/>
<g opacity="0.6">
<path d="M85.04 170.03H66.41L76.45 28.59H95.08L85.04 170.03Z" fill="#F0F0F0"/>
<path d="M92.3 170.03H77.78L87.82 28.59H102.34L92.3 170.03Z" fill="#E6E6E6"/>
<path d="M103.67 170.03H85.04L95.08 28.59H113.71L103.67 170.03Z" fill="#F0F0F0"/>
<path d="M110.93 170.03H96.41L106.46 28.59H120.97L110.93 170.03Z" fill="#E6E6E6"/>
<path d="M122.3 170.03H103.67L113.71 28.59H132.35L122.3 170.03Z" fill="#F0F0F0"/>
</g>
<g opacity="0.6">
<path d="M228.53 170.03H239.06L233.39 28.59H222.86L228.53 170.03Z" fill="#F0F0F0"/>
<path d="M224.43 170.03H232.63L226.96 28.59H218.75L224.43 170.03Z" fill="#E6E6E6"/>
<path d="M218 170.03H228.53L222.86 28.59H212.33L218 170.03Z" fill="#F0F0F0"/>
<path d="M213.9 170.03H222.1L216.43 28.59H208.22L213.9 170.03Z" fill="#E6E6E6"/>
<path d="M207.47 170.03H218L212.33 28.59H201.8L207.47 170.03Z" fill="#F0F0F0"/>
</g>
<path d="M426.66 28.59H324.05V165.01H426.66V28.59Z" fill="#E6E6E6"/>
<path d="M434.45 28.59H327.25V165.01H434.45V28.59Z" fill="#F5F5F5"/>
<path d="M341.137 34.1737L331.596 152.249L420.546 159.437L430.087 41.3617L341.137 34.1737Z" fill="white"/>
<path d="M427.889 41.1827L418.347 159.258L420.54 159.435L430.082 41.3599L427.889 41.1827Z" fill="#E6E6E6"/>
<path d="M440.11 215.97H382.8V327.44H440.11V215.97Z" fill="#F5F5F5"/>
<path d="M440.11 215.97H435.38V327.44H440.11V215.97Z" fill="#F0F0F0"/>
<path d="M255.26 266.33H387.22V219.16H255.26V266.33Z" fill="#E6E6E6"/>
<path d="M261.61 224.34L440.1 224.34V215.98L261.61 215.98V224.34Z" fill="#F0F0F0"/>
<path d="M261.62 215.97H204.31V327.44H261.62V215.97Z" fill="#F5F5F5"/>
<path d="M206.38 251.49H206.64C214.25 251.49 220.43 257.67 220.43 265.28V327.44H192.59V265.28C192.59 257.67 198.77 251.49 206.38 251.49Z" fill="#E6E6E6"/>
<path d="M261.62 215.97H256.89V327.44H261.62V215.97Z" fill="#F0F0F0"/>
<path d="M326.12 215.97H313.76L316.76 191.91H329.13L326.12 215.97Z" fill="#F0F0F0"/>
<path d="M328.86 215.97H316.49L319.5 191.91H331.86L328.86 215.97Z" fill="#F5F5F5"/>
<path d="M330.36 203.94H317.99L319.5 191.91H331.86L330.36 203.94Z" fill="#F0F0F0"/>
<path d="M284.93 201.06H372.39C373.12 201.06 373.68 200.42 373.59 199.7L366.85 145.78C366.77 145.17 366.26 144.72 365.65 144.72H278.19C277.46 144.72 276.9 145.36 276.99 146.08L283.73 200C283.81 200.61 284.32 201.06 284.93 201.06Z" fill="#F0F0F0"/>
<path d="M286.23 201.06H373.69C374.42 201.06 374.98 200.42 374.89 199.7L368.15 145.78C368.07 145.17 367.56 144.72 366.95 144.72H279.49C278.76 144.72 278.2 145.36 278.29 146.08L285.03 200C285.11 200.61 285.62 201.06 286.23 201.06Z" fill="#F5F5F5"/>
<path d="M372.07 198.08L365.76 147.61C365.74 147.44 365.59 147.31 365.42 147.31H281.44C281.24 147.31 281.08 147.49 281.1 147.69L287.41 198.16C287.43 198.33 287.58 198.46 287.75 198.46H371.73C371.93 198.46 372.09 198.28 372.07 198.08Z" fill="#E6E6E6"/>
<path d="M363.11 198.46L340.91 147.31H321.44L343.64 198.46H363.11Z" fill="#EBEBEB"/>
<path d="M339.89 198.46L317.69 147.31H310.68L332.88 198.46H339.89Z" fill="#EBEBEB"/>
<path d="M340.11 215.97H319.97V215.72C319.97 214.61 320.87 213.71 321.98 213.71H338.11C339.22 213.71 340.12 214.61 340.12 215.72V215.97H340.11Z" fill="#F5F5F5"/>
<path d="M322.3 215.97H308.64V215.72C308.64 214.61 309.54 213.71 310.65 213.71H320.3C321.41 213.71 322.31 214.61 322.31 215.72V215.97H322.3Z" fill="#F0F0F0"/>
<path d="M362.36 215.97H300.1L298.42 210.98H354.26L362.36 215.97Z" fill="#F5F5F5"/>
<path d="M306.95 215.97H296.66L295.27 210.98H305.56L306.95 215.97Z" fill="#F0F0F0"/>
<path d="M287.14 215.98H269.42C269.42 213.67 271.29 211.8 273.6 211.8H282.96C285.27 211.8 287.14 213.67 287.14 215.98Z" fill="#F0F0F0"/>
<path d="M89.22 327.45H106.59L106.59 246.72H89.22L89.22 327.45Z" fill="#E0E0E0"/>
<path d="M166.34 327.45H96.1199L87.4399 232.05H157.66L166.34 327.45Z" fill="#E6E6E6"/>
<path d="M169.98 327.45H99.7599L91.0699 232.05H161.3L169.98 327.45Z" fill="#F0F0F0"/>
<path d="M109.36 316.89L102.6 242.61H151.7L158.46 316.89H109.36Z" fill="white"/>
<path d="M250 372.61C357.082 372.61 443.89 367.542 443.89 361.29C443.89 355.038 357.082 349.97 250 349.97C142.917 349.97 56.11 355.038 56.11 361.29C56.11 367.542 142.917 372.61 250 372.61Z" fill="#F5F5F5"/>
<path d="M99.0798 122.045L98.0803 122.077L98.5153 135.4L99.5148 135.368L99.0798 122.045Z" fill="#407BFF"/>
<path d="M98.7052 110.547L97.7057 110.579L97.9126 116.916L98.912 116.883L98.7052 110.547Z" fill="#407BFF"/>
<path d="M112.2 206.92H303.06C307.38 206.92 310.79 203.39 310.65 199.07L306.4 68.84C306.26 64.52 302.61 60.99 298.29 60.99H107.44C103.12 60.99 99.71 64.52 99.85 68.84L104.1 199.07C104.24 203.39 107.89 206.92 112.21 206.92H112.2Z" fill="#407BFF"/>
<path d="M112.81 206.92H303.67C307.99 206.92 311.4 203.39 311.26 199.07L307.01 68.84C306.87 64.52 303.22 60.99 298.9 60.99H108.05C103.73 60.99 100.32 64.52 100.46 68.84L104.71 199.07C104.85 203.39 108.5 206.92 112.82 206.92H112.81Z" fill="#407BFF"/>
<path opacity="0.5" d="M112.81 206.92H303.67C307.99 206.92 311.4 203.39 311.26 199.07L307.01 68.84C306.87 64.52 303.22 60.99 298.9 60.99H108.05C103.73 60.99 100.32 64.52 100.46 68.84L104.71 199.07C104.85 203.39 108.5 206.92 112.82 206.92H112.81Z" fill="white"/>
<path opacity="0.5" d="M298.43 64.91H107.56C107.34 64.91 107.13 64.91 106.92 64.94C102.03 65.34 102.73 72.76 107.65 72.76H298.84C303.76 72.76 303.98 65.34 299.06 64.94C298.85 64.92 298.63 64.91 298.42 64.91H298.43Z" fill="#407BFF"/>
<path d="M112.38 68.83C112.41 69.82 111.63 70.63 110.64 70.63C109.65 70.63 108.81 69.82 108.78 68.83C108.75 67.84 109.53 67.03 110.52 67.03C111.51 67.03 112.35 67.84 112.38 68.83Z" fill="#FAFAFA"/>
<path d="M118.5 68.83C118.53 69.82 117.75 70.63 116.76 70.63C115.77 70.63 114.93 69.82 114.9 68.83C114.87 67.84 115.65 67.03 116.64 67.03C117.63 67.03 118.47 67.84 118.5 68.83Z" fill="#FAFAFA"/>
<path d="M124.62 68.83C124.65 69.82 123.87 70.63 122.88 70.63C121.89 70.63 121.05 69.82 121.02 68.83C120.99 67.84 121.77 67.03 122.76 67.03C123.75 67.03 124.59 67.84 124.62 68.83Z" fill="#FAFAFA"/>
<path d="M116.51 193.92H299.12C300.69 193.92 301.92 192.65 301.87 191.07L298.38 83.97C298.33 82.4 297.01 81.12 295.44 81.12H112.83C111.26 81.12 110.03 82.39 110.08 83.97L113.57 191.07C113.62 192.64 114.94 193.92 116.51 193.92Z" fill="white"/>
<g opacity="0.3">
<path d="M250.53 180.66H247.19V179.72H249.55L249.47 177.36L250.42 177.33L250.53 180.66Z" fill="#407BFF"/>
<path d="M241.88 180.66H236.57V179.71H241.88V180.66ZM231.26 180.66H225.95V179.71H231.26V180.66ZM220.64 180.66H215.33V179.71H220.64V180.66ZM210.02 180.66H204.71V179.71H210.02V180.66ZM199.4 180.66H194.09V179.71H199.4V180.66ZM188.78 180.66H183.47V179.71H188.78V180.66ZM178.16 180.66H172.85V179.71H178.16V180.66Z" fill="#407BFF"/>
<path d="M167.55 180.66H164.24L164.14 177.36L165.08 177.33L165.16 179.72H167.55V180.66Z" fill="#407BFF"/>
<path d="M163.96 172.05L163.79 166.74L164.74 166.71L164.91 172.02L163.96 172.05ZM163.61 161.43L163.44 156.12L164.39 156.09L164.56 161.4L163.61 161.43ZM163.26 150.81L163.09 145.5L164.04 145.47L164.21 150.78L163.26 150.81ZM162.91 140.19L162.74 134.88L163.69 134.85L163.86 140.16L162.91 140.19ZM162.56 129.57L162.39 124.26L163.34 124.23L163.51 129.54L162.56 129.57ZM162.21 118.95L162.04 113.64L162.99 113.61L163.16 118.92L162.21 118.95ZM161.86 108.33L161.69 103.02L162.64 102.99L162.81 108.3L161.86 108.33Z" fill="#407BFF"/>
<path d="M161.54 97.71L161.43 94.38H164.76V95.33H162.41L162.48 97.68L161.54 97.71Z" fill="#407BFF"/>
<path d="M239.1 95.33H233.79V94.38H239.1V95.33ZM228.48 95.33H223.17V94.38H228.48V95.33ZM217.86 95.33H212.55V94.38H217.86V95.33ZM207.24 95.33H201.93V94.38H207.24V95.33ZM196.62 95.33H191.31V94.38H196.62V95.33ZM186 95.33H180.69V94.38H186V95.33ZM175.38 95.33H170.07V94.38H175.38V95.33Z" fill="#407BFF"/>
<path d="M246.87 97.71L246.79 95.33H244.41V94.38H247.71L247.82 97.68L246.87 97.71Z" fill="#407BFF"/>
<path d="M249.3 172.05L249.13 166.74L250.08 166.71L250.25 172.02L249.3 172.05ZM248.95 161.43L248.78 156.12L249.73 156.09L249.9 161.4L248.95 161.43ZM248.6 150.81L248.43 145.5L249.38 145.47L249.55 150.78L248.6 150.81ZM248.25 140.19L248.08 134.88L249.03 134.85L249.2 140.16L248.25 140.19ZM247.9 129.57L247.73 124.26L248.68 124.23L248.85 129.54L247.9 129.57ZM247.55 118.95L247.38 113.64L248.33 113.61L248.5 118.92L247.55 118.95ZM247.2 108.33L247.03 103.02L247.98 102.99L248.15 108.3L247.2 108.33Z" fill="#407BFF"/>
</g>
<path d="M224.82 151.06H189.91C183.24 151.06 177.63 145.63 177.41 138.96C177.21 132.86 181.59 127.72 187.52 126.9C189.04 121.02 194.4 116.83 200.59 116.83C205.6 116.83 210.19 119.45 212.81 123.73C213.9 123.39 215.04 123.22 216.2 123.22C222.33 123.22 227.57 128.01 228.2 134.05C231.29 135.52 233.39 138.66 233.5 142.07C233.58 144.47 232.72 146.72 231.07 148.42C229.43 150.12 227.2 151.05 224.81 151.05L224.82 151.06ZM200.6 119.17C195.23 119.17 190.62 122.97 189.63 128.2L189.46 129.09L188.56 129.15C183.45 129.48 179.58 133.76 179.75 138.89C179.93 144.32 184.49 148.73 189.91 148.73H224.82C226.58 148.73 228.21 148.05 229.4 146.81C230.6 145.57 231.23 143.92 231.17 142.16C231.08 139.42 229.28 136.92 226.68 135.95L225.96 135.68L225.93 134.91C225.72 129.76 221.36 125.57 216.21 125.57C215 125.57 213.83 125.8 212.73 126.25L211.75 126.65L211.26 125.71C209.16 121.68 205.08 119.18 200.6 119.18V119.17Z" fill="#407BFF"/>
<path d="M214.76 139.73L205.13 130.4L196.11 139.73H201.39L201.71 149.37H209.8L209.48 139.73H214.76Z" fill="#407BFF"/>
<path d="M366.95 101.85C367.87 103.17 368.61 104.3 369.38 105.54C370.14 106.75 370.86 107.98 371.56 109.23C372.96 111.71 374.26 114.25 375.46 116.87C376.65 119.49 377.77 122.16 378.7 124.95C379.67 127.71 380.46 130.61 381.05 133.6L381.44 135.88L381.49 136.16L381.54 136.52C381.58 136.87 381.62 137.17 381.64 137.56C381.65 137.94 381.67 138.3 381.64 138.74L381.59 139.37L381.48 140.07C381.41 140.51 381.25 141.05 381.1 141.53C380.9 142.05 380.7 142.55 380.4 143.05C379.84 144.05 379.02 144.94 378.19 145.57C376.48 146.88 374.93 147.25 373.68 147.49C372.41 147.7 371.38 147.7 370.42 147.65C369.46 147.6 368.59 147.49 367.76 147.34C366.12 147.03 364.62 146.62 363.19 146.17C360.33 145.23 357.7 144.12 355.15 142.87C352.59 141.62 350.17 140.3 347.74 138.73L350.62 132.35C355.67 133.59 360.9 134.95 365.7 135.61C366.89 135.78 368.05 135.89 369.09 135.9C370.09 135.92 371.08 135.81 371.24 135.66C371.3 135.61 371.08 135.54 370.41 135.98C370.11 136.19 369.75 136.57 369.5 136.97C369.38 137.19 369.28 137.36 369.21 137.57C369.13 137.72 369.1 137.94 369.06 138.04L369 138.36C369 138.47 368.98 138.48 368.98 138.53C368.98 138.58 368.96 138.55 368.96 138.57C368.96 138.6 368.94 138.5 368.92 138.44L368.86 138.23L368.41 136.55C367.07 132.04 365.1 127.45 362.79 122.96C361.66 120.7 360.42 118.48 359.16 116.26C358.53 115.15 357.87 114.06 357.23 112.97C356.59 111.91 355.88 110.75 355.3 109.83L366.96 101.84L366.95 101.85Z" fill="#FFB573"/>
<path d="M351.79 132.86L347.46 128.54L343.14 138.15C343.14 138.15 347.22 140.41 350.86 138.76L351.79 132.86Z" fill="#FFB573"/>
<path d="M341.04 125.09L337.84 133.21L343.14 138.15L347.45 128.53L341.04 125.09Z" fill="#FFB573"/>
<path d="M355.686 105.059L272.428 90.3937L257.762 173.652L341.02 188.318L355.686 105.059Z" fill="#407BFF"/>
<path opacity="0.6" d="M355.686 105.059L272.428 90.3937L257.762 173.652L341.02 188.318L355.686 105.059Z" fill="white"/>
<path d="M350.914 108.402L275.761 95.1643L262.523 170.317L337.676 183.555L350.914 108.402Z" fill="white"/>
<path opacity="0.3" d="M311.119 133.543C317.492 129.079 319.04 120.293 314.575 113.919C310.111 107.545 301.325 105.998 294.951 110.462C288.578 114.927 287.03 123.713 291.495 130.086C295.959 136.46 304.745 138.008 311.119 133.543Z" fill="#407BFF"/>
<path opacity="0.2" d="M320.66 142.53L295.47 160.16L283.89 143.62L264.88 156.94L262.52 170.32L337.67 183.56L340.03 170.18L320.66 142.53Z" fill="#407BFF"/>
<path d="M324.79 71.56C324.8 72.23 324.46 72.77 324.03 72.78C323.6 72.79 323.23 72.26 323.22 71.59C323.21 70.92 323.55 70.38 323.98 70.37C324.41 70.37 324.78 70.89 324.79 71.56Z" fill="#263238"/>
<path d="M324.53 72.77C324.53 72.77 323.1 76.64 321.47 78.53C322.67 79.6 324.66 79.06 324.66 79.06L324.53 72.77Z" fill="#FF5652"/>
<path d="M327.14 67.82C327.04 67.84 326.94 67.82 326.85 67.76C325.43 66.78 324.12 67.29 324.06 67.31C323.86 67.39 323.63 67.29 323.55 67.09C323.47 66.89 323.56 66.66 323.76 66.58C323.83 66.55 325.51 65.88 327.29 67.11C327.47 67.23 327.51 67.48 327.39 67.65C327.33 67.74 327.24 67.8 327.14 67.81V67.82Z" fill="#263238"/>
<path d="M344.07 74.1C343.65 80.24 344.13 92.63 348.82 96.1C348.82 96.1 347.67 101.1 336.54 102.5C324.3 104.04 329.93 97.16 329.93 97.16C336.41 94.73 335.61 89.79 333.86 85.29L344.06 74.1H344.07Z" fill="#FFB573"/>
<path d="M374.39 339.62C374.39 339.62 374.34 339.6 374.31 339.59C374.11 339.5 373.88 339.27 373.89 338.76C373.89 338.49 374.01 338.26 374.23 338.07C375.17 337.27 377.91 337.62 378.03 337.64C378.11 337.65 378.17 337.7 378.19 337.78C378.21 337.85 378.19 337.93 378.13 337.98C377.49 338.53 375.37 339.96 374.39 339.62ZM377.51 337.98C376.58 337.91 375.05 337.9 374.49 338.37C374.36 338.48 374.29 338.61 374.29 338.77C374.28 339.14 374.43 339.21 374.48 339.23C375.01 339.48 376.51 338.72 377.51 337.97V337.98Z" fill="#407BFF"/>
<path d="M376.63 337.73C375.67 337.4 374.65 336.83 374.48 336.25C374.43 336.09 374.41 335.77 374.8 335.51C375.05 335.34 375.34 335.29 375.65 335.35C376.86 335.6 378.12 337.64 378.17 337.73C378.21 337.79 378.21 337.87 378.17 337.93C378.13 337.99 378.07 338.03 378 338.03C377.66 338.03 377.15 337.91 376.62 337.73H376.63ZM375.71 335.78C375.71 335.78 375.62 335.75 375.58 335.74C375.37 335.69 375.19 335.73 375.03 335.84C374.82 335.98 374.85 336.1 374.87 336.15C375.03 336.68 376.58 337.42 377.63 337.6C377.25 337.06 376.46 336.04 375.72 335.78H375.71Z" fill="#407BFF"/>
<path d="M313.67 353.29C312.61 353.29 311.59 353.14 311.25 352.67C311.13 352.5 311.04 352.22 311.27 351.82C311.4 351.59 311.61 351.44 311.89 351.36C313.26 350.99 316.15 352.63 316.27 352.7C316.34 352.74 316.38 352.82 316.37 352.9C316.36 352.98 316.3 353.04 316.22 353.06C315.69 353.17 314.68 353.29 313.69 353.29H313.67ZM312.36 351.69C312.22 351.69 312.1 351.7 311.98 351.73C311.8 351.78 311.67 351.87 311.6 352C311.46 352.24 311.51 352.36 311.56 352.43C311.94 352.96 314.03 352.97 315.56 352.76C314.79 352.37 313.32 351.68 312.35 351.68L312.36 351.69Z" fill="#407BFF"/>
<path d="M316.16 353.06C316.16 353.06 316.11 353.06 316.08 353.04C315.08 352.59 313.11 350.81 313.26 349.88C313.3 349.66 313.45 349.39 313.99 349.33C314.39 349.29 314.75 349.4 315.07 349.67C316.12 350.53 316.34 352.75 316.35 352.85C316.35 352.92 316.33 352.99 316.27 353.03C316.24 353.05 316.2 353.07 316.16 353.07V353.06ZM314.15 349.72C314.15 349.72 314.07 349.72 314.03 349.72C313.68 349.76 313.66 349.89 313.65 349.94C313.56 350.5 314.9 351.9 315.92 352.51C315.81 351.86 315.52 350.53 314.83 349.97C314.62 349.8 314.4 349.72 314.15 349.72Z" fill="#407BFF"/>
<path d="M325.23 352.86H316.98L316.16 333.76H324.41L325.23 352.86Z" fill="#FFB573"/>
<path d="M386.92 335.44L379.27 337.54L369.48 319.63L377.13 317.53L386.92 335.44Z" fill="#FFB573"/>
<path d="M378.12 336.7L386.37 332.48C386.67 332.33 387.04 332.4 387.25 332.66L392.04 338.45C392.54 339.05 392.33 339.96 391.63 340.31C388.72 341.73 387.24 342.28 383.61 344.14C381.38 345.28 374.74 350.22 371.39 351.09C368.11 351.94 366.74 348.76 368.03 348.11C373.83 345.16 376.18 340.33 377.15 337.77C377.33 337.31 377.67 336.93 378.11 336.71L378.12 336.7Z" fill="#263238"/>
<path d="M317.04 351.91H326.05C326.39 351.91 326.68 352.14 326.75 352.47L328.38 359.8C328.55 360.56 327.97 361.28 327.19 361.27C323.94 361.21 319.24 361.02 315.16 361.02C310.38 361.02 306.26 361.28 300.66 361.28C297.27 361.28 296.33 357.86 297.75 357.55C304.2 356.14 309.47 355.99 315.05 352.55C315.66 352.18 316.33 351.91 317.04 351.91Z" fill="#263238"/>
<path d="M352.48 111.37C353.34 113.59 354.29 115.75 355.24 117.77C356.88 121.27 358.52 124.34 359.71 126.45C360.77 128.35 361.47 129.48 361.47 129.48L379.49 120.54C379.49 120.54 372.23 99.67 364.65 97.34C356.88 94.98 348.59 101.4 352.48 111.35V111.37Z" fill="#263238"/>
<path opacity="0.2" d="M360.47 113.44C358.9 114.59 357.78 117.7 356.98 121.35C358.01 123.36 358.95 125.1 359.72 126.46C360.78 128.37 361.47 129.5 361.47 129.5L363.54 128.47C363.4 123.64 362.63 118.21 360.47 113.44Z" fill="black"/>
<path d="M314.38 124.68C314.38 127.49 314.45 130.58 314.6 133.98C315 143.23 316.01 154.77 317.95 169.1H362.07C362.37 162.33 358.12 129.28 364.65 97.36C364.65 97.36 357.08 95.84 349.87 95.5C344.23 95.23 336.07 95.05 331.12 95.5C324.58 96.11 318.43 97.79 318.43 97.79C318.43 97.79 314.36 102.38 314.38 124.69V124.68Z" fill="#263238"/>
<path d="M325.73 111.59C324.95 113.23 324.28 114.39 323.54 115.6C322.81 116.78 322.08 117.91 321.31 119.01C319.79 121.22 318.2 123.33 316.53 125.4C313.19 129.52 309.58 133.45 305.4 137.08C303.32 138.9 301.05 140.62 298.5 142.19L297.52 142.76L297.26 142.91L296.9 143.09L296.17 143.44C295.19 143.86 294.2 144.19 293.23 144.39C291.28 144.79 289.45 144.82 287.76 144.67C284.39 144.31 281.56 143.28 278.98 142.04C277.7 141.4 276.47 140.72 275.3 139.94C274.11 139.17 273.07 138.38 271.89 137.39L275.43 131.35C279.75 132.48 284.64 133.5 288 133.02C288.82 132.92 289.51 132.72 289.98 132.47C290.22 132.34 290.4 132.22 290.55 132.1C290.58 132.06 290.62 132.03 290.65 132L290.7 131.96L290.84 131.86L291.45 131.43C293.08 130.23 294.71 128.77 296.31 127.19C299.5 124.02 302.54 120.39 305.4 116.65C306.83 114.77 308.22 112.85 309.54 110.93C310.19 109.96 310.84 109 311.44 108.06C312.02 107.13 312.64 106.14 312.95 105.53L325.72 111.59H325.73Z" fill="#FFB573"/>
<path d="M277.22 132.23L269.61 128.62L268.92 138.83C268.92 138.83 274.83 139.85 277.97 137.54L277.22 132.23Z" fill="#FFB573"/>
<path d="M260.02 130.35L262.95 138.13L268.92 138.82L269.61 128.62L260.02 130.35Z" fill="#FFB573"/>
<path d="M331.18 106.18C330.92 114.06 314.68 132.23 314.68 132.23L297.52 121.02C297.52 121.02 302.96 110.84 310.02 103.48C320.68 92.37 331.48 96.72 331.17 106.18H331.18Z" fill="#263238"/>
<path opacity="0.2" d="M316.16 333.76L316.58 343.61H324.84L324.42 333.76H316.16Z" fill="black"/>
<path opacity="0.2" d="M377.13 317.53L369.48 319.63L374.53 328.87L382.18 326.76L377.13 317.53Z" fill="black"/>
<path d="M346.95 69.69C346.62 77.87 346.84 82.68 342.8 86.96C336.72 93.4 326.56 89.87 324.44 81.75C322.53 74.45 323.39 62.29 331.32 58.87C339.13 55.5 347.27 61.51 346.94 69.69H346.95Z" fill="#FFB573"/>
<path d="M330.67 73.59C327.73 71.49 324.84 67.16 325.06 63.94C322.34 63.83 320.5 59.33 322 56.05C322.94 58.16 326.19 56.61 327.46 54.94C326.78 53.33 326.89 50.66 331.56 48.77C331.17 50.13 331.37 52.42 336.06 50.77C341.75 48.77 351.76 50.1 348.83 56.88C352.84 57.6 358.04 65.87 353.62 70.23C349.2 74.59 348.29 81.6 344.51 82.33C340.73 83.06 330.9 83.3 330.68 73.59H330.67Z" fill="#263238"/>
<path d="M346.16 56.61C348.79 55.41 353.02 55.92 355.3 59.18C352.2 57.91 350.42 57.08 346.16 56.61Z" fill="#263238"/>
<path d="M332.82 73.24C332.76 75.16 331.92 76.98 330.88 78.19C329.32 80.01 327.61 78.95 327.27 76.8C326.96 74.86 327.4 71.59 329.34 70.55C331.25 69.53 332.89 71.04 332.82 73.23V73.24Z" fill="#FFB573"/>
<path d="M333.6 169.1C333.6 169.1 329.71 231.53 337.09 254.55C348.78 291.01 369.61 328.26 369.61 328.26L384.51 323.78C384.51 323.78 368.12 284.46 362.73 253.75C357.89 226.16 362.07 191.64 362.07 169.11H333.6V169.1Z" fill="#407BFF"/>
<path opacity="0.2" d="M332.97 183.01C337.13 181.79 340.38 182.25 341.22 185.96C343.42 195.63 336.82 221.14 333.53 232.81C332.2 216.09 332.51 196.09 332.96 183.01H332.97Z" fill="black"/>
<path d="M365.4 323.98C365.34 324 369.29 328.59 369.29 328.59L385.57 323.69L383.5 318.18L365.4 323.97V323.98Z" fill="#263238"/>
<path d="M317.95 169.1C317.95 169.1 305.52 221.77 304.65 246.93C303.67 275.15 313.52 341.7 313.52 341.7H327.5C327.5 341.7 329.22 274.63 329.84 248.93C330.52 220.91 346.96 169.1 346.96 169.1H317.95Z" fill="#407BFF"/>
<path d="M310.82 336.14C310.76 336.14 311.61 341.94 311.61 341.94H328.61L329.07 336.76L310.82 336.14Z" fill="#263238"/>
<path d="M324.12 93.56C326.01 92.9 340.43 91.07 350.89 91.63C356.86 91.95 360.23 92.6 362.67 93.78C365.11 94.96 360.74 100.91 358.72 101.63C359.54 103.91 354.99 106.82 352.39 108.2C351.35 110.34 341.13 112.32 335.12 107.72C330.51 104.18 318.72 95.43 324.12 93.56Z" fill="#407BFF"/>
</g>
<defs>
<clipPath id="clip0_390_195">
<rect width="500" height="372.61" fill="white"/>
</clipPath>
</defs>
</svg>
