<?xml version="1.0" encoding="UTF-8"?>
<svg id="_레이어_2" data-name="레이어 2" xmlns="http://www.w3.org/2000/svg" viewBox="0 0 396.94 45.79">
  <path d="m244.87,9.63c-.4.23-.95.34-1.64.34s-1.24-.12-1.65-.35c-.41-.23-.61-.54-.61-.93s.2-.71.61-.94c.41-.23.96-.34,1.65-.34s1.22.11,1.63.34c.41.23.61.54.61.94s-.2.71-.6.94Zm.98-9.44h-5.3v1.84h5.3V.19Zm2.38,2.8h-10.06v1.86h10.06v-1.86Zm5.72,2.34h-2.22V.31h-2.1v12.9h2.1v-5.76h2.22v-2.12Zm-7.44,1.19c-.8-.61-1.9-.91-3.3-.91-1.32,0-2.41.3-3.26.9-.85.6-1.28,1.33-1.28,2.2,0,.8.42,1.51,1.27,2.13.85.62,1.93.93,3.25.93,1.4,0,2.5-.31,3.31-.92.81-.61,1.21-1.33,1.21-2.14,0-.85-.4-1.58-1.2-2.19Zm5.76,8.97h-9.5v-2.86h-2.22v4.88h11.72v-2.02Z" fill="#005ca2"/>
  <path d="m271.6,9.17h-7.14v2.92h5.16v5.8h-2.08v-3.76h-9.98v-2.04h4.7v-2.92h-6.5v-2.02h11.08c.12-.56.25-1.22.39-1.98.14-.76.24-1.51.29-2.24h-10V.91h12.42c0,.32-.05.83-.14,1.54-.09.71-.18,1.3-.26,1.78-.12.67-.22,1.22-.3,1.65-.08.43-.17.86-.26,1.27h2.62v2.02Z" fill="#005ca2"/>
  <path d="m288.74,13h-2.08v-6.58h-3.18v-2.12h3.18V.28h2.08v12.72Zm.34,4.48h-11.92v-5.74h2.08v3.72h9.84v2.02Zm-10.74-14.14h-3.04V1.28h8.32v2.06h-3.06v.26c0,.71.13,1.35.39,1.92.26.57.62,1.07,1.07,1.48.45.41.85.73,1.2.94.35.21.74.4,1.18.56l-1.26,1.8c-.29-.12-.59-.27-.9-.44-.31-.17-.68-.43-1.12-.78-.35-.27-.65-.54-.91-.83-.26-.29-.51-.58-.75-.89-.17.33-.39.67-.66,1.01-.27.34-.59.68-.98,1.01-.43.37-.83.67-1.21.9-.38.23-.72.42-1.03.58l-1.48-1.74c.45-.21.91-.47,1.38-.78.47-.31.96-.71,1.48-1.2.41-.41.75-.93,1-1.54.25-.61.38-1.28.38-2v-.26Z" fill="#005ca2"/>
  <path d="m296.13,4.1h-3.46v-2.02h9.16v2.02h-3.48v.74c0,.49.09,1.26.26,2.29.17,1.03.53,1.96,1.08,2.79.49.72,1.01,1.31,1.54,1.76.53.45.93.76,1.18.92l-1.34,1.74c-.16-.11-.46-.32-.91-.65-.45-.33-.9-.76-1.35-1.31-.35-.43-.64-.85-.89-1.28-.25-.43-.46-.85-.65-1.26-.19.49-.42.97-.69,1.44-.27.47-.62.96-1.05,1.48-.36.44-.72.82-1.08,1.14-.36.32-.77.65-1.22.98l-1.72-1.52c.71-.49,1.36-1.05,1.95-1.66.59-.61,1.09-1.29,1.49-2.02.44-.83.75-1.72.92-2.67.17-.95.26-1.68.26-2.17v-.74Zm11.94,5.18h-2.24v8.6h-2.08V.28h2.08v6.8h2.24v2.2Z" fill="#005ca2"/>
  <path d="m320.47,15.99c-.71.23-1.64.34-2.79.34s-2.09-.12-2.78-.37c-.69-.25-1.04-.56-1.04-.95,0-.41.35-.71,1.05-.89.7-.18,1.63-.27,2.79-.27s2.07.1,2.78.3c.71.2,1.06.5,1.06.9s-.36.71-1.07.94Zm1.97-3.11c-1.11-.58-2.69-.87-4.76-.87s-3.66.28-4.75.83c-1.09.55-1.63,1.28-1.63,2.19s.55,1.63,1.66,2.22c1.11.59,2.68.88,4.72.88s3.65-.28,4.76-.84c1.11-.56,1.66-1.29,1.66-2.18s-.55-1.65-1.66-2.23Zm3.16-3.63h-6.74v-1.3h5v-1.82h-9.96v-1.02h9.7v-1.68h-9.7v-1.02h9.74V.59h-11.9v7.36h4.76v1.3h-6.74v1.92h15.84v-1.92Z" fill="#005ca2"/>
  <path d="m342.45,13h-2.1V.28h2.1v12.72Zm.36,4.48h-11.88v-5.5h2.12v3.48h9.76v2.02Zm-4.24-8.8l-1.22,1.76c-.29-.12-.69-.33-1.18-.64-.49-.31-.95-.66-1.38-1.06-.29-.28-.56-.57-.81-.86-.25-.29-.48-.63-.71-1-.19.36-.41.72-.68,1.09-.27.37-.59.75-.98,1.15-.41.43-.84.8-1.27,1.11-.43.31-.82.56-1.15.75l-1.46-1.64c.52-.29,1.06-.66,1.61-1.09.55-.43,1.06-.95,1.51-1.55.52-.67.87-1.34,1.04-2.03.17-.69.26-1.4.26-2.13V.76h2.22v1.78c0,.71.1,1.4.29,2.07.19.67.51,1.28.95,1.83.45.55.95,1.01,1.49,1.39.54.38,1.03.66,1.47.85Z" fill="#005ca2"/>
  <path d="m352.63,3.58c.39.49.58,1.08.58,1.76s-.19,1.25-.58,1.74c-.39.49-.95.74-1.7.74s-1.3-.25-1.69-.74c-.39-.49-.59-1.07-.59-1.74s.2-1.27.59-1.76c.39-.49.96-.74,1.69-.74s1.31.25,1.7.74Zm.32-2.29c-.6-.31-1.27-.47-2.02-.47-1.28,0-2.34.44-3.17,1.33s-1.25,1.95-1.25,3.19.42,2.3,1.25,3.18c.83.88,1.89,1.32,3.17,1.32.76,0,1.44-.16,2.05-.49.61-.33,1.11-.76,1.51-1.29h3.84v4.94h2.08V.28h-2.08v2.26h-3.9c-.39-.52-.88-.94-1.48-1.25Zm2.39,4.44c0-.13.01-.26.01-.39,0-.15,0-.29-.02-.42-.01-.13-.03-.27-.04-.4h3.04v1.58h-3.02c.01-.12.02-.24.03-.37Zm5.43,9.73h-9.8v-3.62h-2.16v5.64h11.96v-2.02Z" fill="#005ca2"/>
  <path d="m379.6,10.55h-7.22v7.34h-2.14v-7.34h-6.48v-2.02h10.94c.15-.48.31-1.25.49-2.32.18-1.07.3-2.07.35-3h-10V1.19h12.4c0,.29-.05.9-.16,1.83-.11.93-.21,1.71-.32,2.35-.09.65-.21,1.27-.34,1.85-.13.58-.23,1.02-.28,1.31h2.76v2.02Z" fill="#005ca2"/>
  <path d="m389.55,2.29c.34.35.51.68.51.99,0,.28-.17.59-.5.93-.33.34-.89.51-1.68.51-.75,0-1.29-.17-1.64-.51-.35-.34-.52-.65-.52-.93,0-.31.17-.64.5-.99.33-.35.89-.53,1.66-.53s1.33.18,1.67.53Zm7.03-1.99h-2.08v9.94h-3.7v1.92h3.7v1.42h2.08V.3Zm-2.62,6.64c-.39.09-1.3.2-2.75.33-1.45.13-2.61.19-3.49.19h-5.4v2.06h3.7v2.96h2.18v-2.98c.55,0,1.48-.06,2.79-.17,1.31-.11,2.3-.24,2.97-.37v-2.02Zm2.98,8.54h-9.78v-2.3h-2.2v4.32h11.98v-2.02Zm-12.23-14.49c-.73.66-1.09,1.42-1.09,2.29s.36,1.65,1.08,2.3c.72.65,1.78.98,3.18.98s2.44-.32,3.16-.97c.72-.65,1.08-1.42,1.08-2.31s-.35-1.63-1.05-2.29c-.7-.66-1.76-.99-3.19-.99s-2.44.33-3.17.99Z" fill="#005ca2"/>
  <g>
    <rect x="204.18" y=".12" width="17.05" height="42.81" fill="#005ca2"/>
    <polygon points="65.77 .12 65.77 9.13 85.7 9.13 85.7 42.93 102.8 42.93 102.8 9.13 122.74 9.13 122.74 .12 65.77 .12" fill="#005ca2"/>
    <path d="m55.67,9.13V.12H0v34.61c0,4.52,3.66,8.18,8.18,8.18h47.5v-9.01H17.1v-7.88h38.58v-9.01H17.1v-7.88h38.58Z" fill="#005ca2"/>
    <g>
      <polygon points="174.15 22.96 154.03 22.96 177.11 45.79 197.23 45.79 174.15 22.96" fill="#ea5504"/>
      <path d="m183.08.12h-51.77v42.81h17.1V9.13h25.75v13.83h17.1v-14.67c0-4.52-3.66-8.17-8.18-8.17Z" fill="#ea5504"/>
    </g>
  </g>
  <path d="m238.02,23.41h3.9v1.18h-2.57v1.85h2.36v1.18h-2.36v2.11h2.59v1.18h-3.92v-7.5Z" fill="#005ca2"/>
  <path d="m243.19,22.85h1.27v8.06h-1.27v-8.06Z" fill="#005ca2"/>
  <path d="m246.69,27.6c.06-.74.42-1.3,1.13-1.3s.99.6,1.03,1.3h-2.16Zm3.01,1.83c-.47.3-1,.56-1.62.56-.79,0-1.33-.51-1.39-1.4h3.37c0-1.94-.51-3.34-2.32-3.34-1.51,0-2.26,1.32-2.26,2.92,0,1.82.94,2.87,2.55,2.87.68,0,1.21-.15,1.67-.44v-1.17Z" fill="#005ca2"/>
  <path d="m254.21,26.56c-.23-.12-.47-.2-.86-.2-.79,0-1.29.71-1.29,1.75s.43,1.81,1.32,1.81c.36,0,.76-.15.97-.26l.06,1.19c-.37.13-.75.18-1.27.18-1.6,0-2.4-1.24-2.4-2.92s.83-2.87,2.36-2.87c.51,0,.88.06,1.23.18l-.11,1.14Z" fill="#005ca2"/>
  <path d="m255.67,26.43h-.94v-1.05h.94v-1.11l1.27-.46v1.57h1.13v1.05h-1.13v2.58c0,.47.11.91.6.91.23,0,.44-.05.58-.15l.04,1.14c-.26.09-.56.13-.94.13-.99,0-1.54-.7-1.54-1.79v-2.82Z" fill="#005ca2"/>
  <path d="m258.96,25.37h1.13v1.26h.02c.06-.52.58-1.39,1.33-1.39.12,0,.26,0,.39.04v1.45c-.11-.07-.34-.12-.57-.12-1.03,0-1.03,1.46-1.03,2.26v2.03h-1.27v-5.54Z" fill="#005ca2"/>
  <path d="m263.45,28.01c0-.83.4-1.64,1.22-1.64s1.23.79,1.23,1.64c0,.92-.26,1.91-1.23,1.91s-1.22-1-1.22-1.91Zm-1.32.17c0,1.59.94,2.86,2.54,2.86s2.55-1.27,2.55-2.86c0-1.83-1.11-2.94-2.55-2.94s-2.54,1.11-2.54,2.94Z" fill="#005ca2"/>
  <path d="m268.22,25.37h1.2v.75h.02c.4-.63.94-.88,1.6-.88,1.15,0,1.66.93,1.66,2.17v3.49h-1.27v-2.96c0-.68,0-1.59-.82-1.59-.92,0-1.12,1.13-1.12,1.84v2.71h-1.27v-5.54Z" fill="#005ca2"/>
  <path d="m274.03,25.37h1.27v5.54h-1.27v-5.54Zm0-2.39h1.27v1.38h-1.27v-1.38Z" fill="#005ca2"/>
  <path d="m279.79,26.56c-.23-.12-.47-.2-.86-.2-.79,0-1.29.71-1.29,1.75s.43,1.81,1.31,1.81c.36,0,.76-.15.97-.26l.06,1.19c-.37.13-.75.18-1.27.18-1.6,0-2.4-1.24-2.4-2.92s.83-2.87,2.36-2.87c.51,0,.88.06,1.23.18l-.11,1.14Z" fill="#005ca2"/>
  <path d="m283.73,26.53c-.39-.15-.67-.24-1.13-.24-.34,0-.75.14-.75.61,0,.88,2.21.32,2.21,2.32,0,1.29-1.01,1.81-2.04,1.81-.48,0-.97-.1-1.44-.24l.08-1.18c.4.23.81.37,1.25.37.32,0,.83-.14.83-.68,0-1.09-2.2-.34-2.2-2.34,0-1.19.92-1.72,1.91-1.72.6,0,.98.11,1.38.21l-.08,1.09Z" fill="#005ca2"/>
  <path d="m288.56,29.31c0-.85.84-.96,1.41-.96h.55c0,.43-.06.83-.26,1.14-.2.3-.5.5-.89.5-.46,0-.8-.21-.8-.68Zm-.64-2.41c.43-.37.97-.6,1.5-.6.75,0,1.1.3,1.1,1.19h-.7c-.53,0-1.15.05-1.64.32-.48.27-.83.75-.83,1.58,0,1.05.84,1.64,1.7,1.64.58,0,1.21-.34,1.5-.96h.02c0,.17,0,.54.06.83h1.12c-.03-.43-.05-.82-.06-1.24,0-.41-.02-.83-.02-1.39v-.71c0-1.63-.61-2.33-2.1-2.33-.54,0-1.2.16-1.69.42l.04,1.24Z" fill="#005ca2"/>
  <path d="m292.92,25.37h1.2v.75h.02c.4-.63.94-.88,1.6-.88,1.15,0,1.66.93,1.66,2.17v3.49h-1.27v-2.96c0-.68,0-1.59-.82-1.59-.92,0-1.12,1.13-1.12,1.84v2.71h-1.27v-5.54Z" fill="#005ca2"/>
  <path d="m299.71,28.12c0-.74.23-1.76,1.05-1.76s1.13.99,1.13,1.76-.27,1.8-1.12,1.8-1.07-1.03-1.07-1.8Zm2.23,2.79h1.23v-8.06h-1.27v3.17h-.02c-.38-.53-.82-.78-1.46-.78-1.5,0-2.04,1.36-2.04,2.88s.55,2.91,2.04,2.91c.6,0,1.12-.21,1.5-.75h.02v.62Z" fill="#005ca2"/>
  <path d="m308.43,24.59h-1.89v-1.18h5.11v1.18h-1.89v6.32h-1.33v-6.32Z" fill="#005ca2"/>
  <path d="m312.22,27.6c.06-.74.42-1.3,1.13-1.3s.99.6,1.03,1.3h-2.16Zm3.01,1.83c-.47.3-1,.56-1.62.56-.79,0-1.33-.51-1.39-1.4h3.37c0-1.94-.51-3.34-2.32-3.34-1.51,0-2.26,1.32-2.26,2.92,0,1.82.94,2.87,2.54,2.87.68,0,1.21-.15,1.67-.44v-1.17Z" fill="#005ca2"/>
  <path d="m316.61,22.85h1.27v8.06h-1.27v-8.06Z" fill="#005ca2"/>
  <path d="m320.11,27.6c.06-.74.42-1.3,1.12-1.3s.99.6,1.03,1.3h-2.16Zm3.01,1.83c-.47.3-1,.56-1.62.56-.79,0-1.33-.51-1.39-1.4h3.37c0-1.94-.51-3.34-2.32-3.34-1.51,0-2.26,1.32-2.26,2.92,0,1.82.94,2.87,2.54,2.87.68,0,1.21-.15,1.67-.44v-1.17Z" fill="#005ca2"/>
  <path d="m327.63,26.56c-.23-.12-.47-.2-.86-.2-.79,0-1.29.71-1.29,1.75s.43,1.81,1.31,1.81c.36,0,.76-.15.97-.26l.06,1.19c-.37.13-.75.18-1.27.18-1.6,0-2.4-1.24-2.4-2.92s.83-2.87,2.36-2.87c.51,0,.88.06,1.23.18l-.11,1.14Z" fill="#005ca2"/>
  <path d="m329.69,28.01c0-.83.4-1.64,1.22-1.64s1.23.79,1.23,1.64c0,.92-.26,1.91-1.23,1.91s-1.22-1-1.22-1.91Zm-1.33.17c0,1.59.94,2.86,2.54,2.86s2.55-1.27,2.55-2.86c0-1.83-1.11-2.94-2.55-2.94s-2.54,1.11-2.54,2.94Z" fill="#005ca2"/>
  <path d="m334.43,25.37h1.18v.78h.02c.4-.68.97-.9,1.45-.9.68,0,1.16.29,1.44.98.29-.67.93-.98,1.52-.98,1.2,0,1.54.94,1.54,2.17v3.49h-1.27v-3.3c0-.52,0-1.25-.73-1.25-.84,0-.95,1.14-.95,1.86v2.69h-1.27v-3.3c0-.52,0-1.25-.73-1.25-.84,0-.95,1.14-.95,1.86v2.69h-1.27v-5.54Z" fill="#005ca2"/>
  <path d="m342.84,25.37h1.18v.78h.02c.4-.68.97-.9,1.45-.9.68,0,1.16.29,1.44.98.29-.67.93-.98,1.52-.98,1.2,0,1.54.94,1.54,2.17v3.49h-1.27v-3.3c0-.52,0-1.25-.73-1.25-.84,0-.95,1.14-.95,1.86v2.69h-1.27v-3.3c0-.52,0-1.25-.73-1.25-.84,0-.95,1.14-.95,1.86v2.69h-1.27v-5.54Z" fill="#005ca2"/>
  <path d="m355.75,30.91h-1.2v-.75h-.02c-.39.54-.94.88-1.6.88-1.15,0-1.66-.92-1.66-2.17v-3.49h1.27v2.96c0,.68,0,1.59.82,1.59.92,0,1.12-1.13,1.12-1.84v-2.71h1.27v5.54Z" fill="#005ca2"/>
  <path d="m357.05,25.37h1.2v.75h.02c.4-.63.94-.88,1.6-.88,1.15,0,1.66.93,1.66,2.17v3.49h-1.27v-2.96c0-.68,0-1.59-.82-1.59-.92,0-1.12,1.13-1.12,1.84v2.71h-1.27v-5.54Z" fill="#005ca2"/>
  <path d="m362.86,25.37h1.27v5.54h-1.27v-5.54Zm0-2.39h1.27v1.38h-1.27v-1.38Z" fill="#005ca2"/>
  <path d="m368.62,26.56c-.23-.12-.47-.2-.86-.2-.79,0-1.29.71-1.29,1.75s.42,1.81,1.31,1.81c.36,0,.76-.15.97-.26l.06,1.19c-.37.13-.75.18-1.27.18-1.6,0-2.4-1.24-2.4-2.92s.83-2.87,2.36-2.87c.51,0,.88.06,1.23.18l-.11,1.14Z" fill="#005ca2"/>
  <path d="m370.56,29.31c0-.85.84-.96,1.41-.96h.55c0,.43-.06.83-.26,1.14-.2.3-.5.5-.89.5-.46,0-.8-.21-.8-.68Zm-.64-2.41c.43-.37.97-.6,1.5-.6.75,0,1.1.3,1.1,1.19h-.7c-.53,0-1.15.05-1.64.32-.48.27-.83.75-.83,1.58,0,1.05.84,1.64,1.7,1.64.58,0,1.21-.34,1.5-.96h.02c0,.17,0,.54.06.83h1.12c-.03-.43-.05-.82-.06-1.24,0-.41-.02-.83-.02-1.39v-.71c0-1.63-.61-2.33-2.1-2.33-.54,0-1.2.16-1.69.42l.04,1.24Z" fill="#005ca2"/>
  <path d="m375.34,26.43h-.94v-1.05h.94v-1.11l1.27-.46v1.57h1.12v1.05h-1.12v2.58c0,.47.11.91.6.91.23,0,.45-.05.58-.15l.04,1.14c-.27.09-.56.13-.94.13-.99,0-1.54-.7-1.54-1.79v-2.82Z" fill="#005ca2"/>
  <path d="m378.63,25.37h1.27v5.54h-1.27v-5.54Zm0-2.39h1.27v1.38h-1.27v-1.38Z" fill="#005ca2"/>
  <path d="m382.24,28.01c0-.83.4-1.64,1.22-1.64s1.23.79,1.23,1.64c0,.92-.25,1.91-1.23,1.91s-1.22-1-1.22-1.91Zm-1.33.17c0,1.59.94,2.86,2.54,2.86s2.55-1.27,2.55-2.86c0-1.83-1.11-2.94-2.55-2.94s-2.54,1.11-2.54,2.94Z" fill="#005ca2"/>
  <path d="m387.01,25.37h1.2v.75h.02c.4-.63.94-.88,1.6-.88,1.15,0,1.66.93,1.66,2.17v3.49h-1.27v-2.96c0-.68,0-1.59-.82-1.59-.92,0-1.12,1.13-1.12,1.84v2.71h-1.27v-5.54Z" fill="#005ca2"/>
  <path d="m395.69,26.53c-.39-.15-.67-.24-1.13-.24-.34,0-.75.14-.75.61,0,.88,2.2.32,2.2,2.32,0,1.29-1.01,1.81-2.04,1.81-.48,0-.97-.1-1.44-.24l.08-1.18c.4.23.81.37,1.25.37.32,0,.83-.14.83-.68,0-1.09-2.21-.34-2.21-2.34,0-1.19.92-1.72,1.91-1.72.6,0,.98.11,1.38.21l-.09,1.09Z" fill="#005ca2"/>
  <path d="m239.23,36.59h.43c.66,0,1.4.07,1.4.98s-.75,1.04-1.4,1.04h-.43v-2.02Zm-1.32,6.32h1.32v-3.12h.43c.56,0,.73.21.92.77l.79,2.34h1.48l-1.06-2.94c-.13-.33-.34-.74-.7-.77v-.02c.84-.13,1.36-.86,1.36-1.74,0-2.08-1.69-2.03-3.11-2.03h-1.43v7.5Z" fill="#005ca2"/>
  <path d="m244.58,39.6c.06-.74.42-1.3,1.12-1.3s.99.6,1.03,1.3h-2.16Zm3.01,1.83c-.47.3-1,.56-1.62.56-.79,0-1.33-.51-1.39-1.4h3.37c0-1.94-.51-3.34-2.32-3.34-1.51,0-2.26,1.32-2.26,2.92,0,1.82.94,2.87,2.54,2.87.68,0,1.21-.15,1.67-.44v-1.17Z" fill="#005ca2"/>
  <path d="m251.84,38.53c-.39-.15-.67-.24-1.13-.24-.34,0-.75.14-.75.61,0,.88,2.2.32,2.2,2.32,0,1.29-1.01,1.81-2.04,1.81-.48,0-.97-.1-1.44-.24l.08-1.18c.4.23.81.37,1.25.37.32,0,.83-.14.83-.68,0-1.09-2.2-.34-2.2-2.34,0-1.19.92-1.72,1.91-1.72.6,0,.98.11,1.38.21l-.08,1.09Z" fill="#005ca2"/>
  <path d="m254.04,39.6c.06-.74.42-1.3,1.13-1.3s.99.6,1.03,1.3h-2.16Zm3.01,1.83c-.47.3-1,.56-1.62.56-.79,0-1.33-.51-1.39-1.4h3.37c0-1.94-.51-3.34-2.32-3.34-1.51,0-2.26,1.32-2.26,2.92,0,1.82.94,2.87,2.54,2.87.68,0,1.21-.15,1.67-.44v-1.17Z" fill="#005ca2"/>
  <path d="m259.3,41.31c0-.85.84-.96,1.41-.96h.55c0,.43-.06.83-.27,1.14-.2.3-.5.5-.89.5-.45,0-.8-.21-.8-.68Zm-.64-2.41c.43-.37.96-.6,1.5-.6.75,0,1.1.3,1.1,1.19h-.7c-.53,0-1.15.05-1.64.32-.48.27-.83.75-.83,1.58,0,1.05.84,1.64,1.7,1.64.58,0,1.21-.34,1.5-.96h.02c0,.17,0,.54.06.83h1.12c-.03-.43-.05-.82-.06-1.24,0-.41-.02-.83-.02-1.39v-.71c0-1.63-.62-2.33-2.1-2.33-.54,0-1.2.16-1.69.42l.04,1.24Z" fill="#005ca2"/>
  <path d="m263.69,37.37h1.12v1.26h.02c.06-.52.58-1.39,1.33-1.39.12,0,.25,0,.39.04v1.45c-.11-.07-.34-.12-.57-.12-1.03,0-1.03,1.46-1.03,2.26v2.03h-1.27v-5.54Z" fill="#005ca2"/>
  <path d="m270.33,38.56c-.23-.12-.47-.2-.86-.2-.79,0-1.29.71-1.29,1.75s.43,1.81,1.32,1.81c.36,0,.76-.15.97-.26l.06,1.19c-.37.13-.75.18-1.27.18-1.6,0-2.4-1.24-2.4-2.92s.83-2.87,2.36-2.87c.51,0,.88.06,1.23.18l-.11,1.14Z" fill="#005ca2"/>
  <path d="m271.37,34.85h1.27v3.28h.02c.32-.54.87-.88,1.53-.88,1.15,0,1.66.93,1.66,2.17v3.49h-1.27v-2.96c0-.68,0-1.59-.82-1.59-.92,0-1.12,1.13-1.12,1.84v2.71h-1.27v-8.06Z" fill="#005ca2"/>
  <path d="m279.78,35.4h1.33v7.5h-1.33v-7.5Z" fill="#005ca2"/>
  <path d="m282.41,37.37h1.2v.75h.02c.4-.63.94-.88,1.6-.88,1.15,0,1.66.93,1.66,2.17v3.49h-1.27v-2.96c0-.68,0-1.59-.82-1.59-.92,0-1.12,1.13-1.12,1.84v2.71h-1.27v-5.54Z" fill="#005ca2"/>
  <path d="m291.09,38.53c-.39-.15-.67-.24-1.13-.24-.34,0-.75.14-.75.61,0,.88,2.2.32,2.2,2.32,0,1.29-1.01,1.81-2.04,1.81-.48,0-.97-.1-1.44-.24l.08-1.18c.4.23.81.37,1.25.37.32,0,.83-.14.83-.68,0-1.09-2.21-.34-2.21-2.34,0-1.19.92-1.72,1.91-1.72.6,0,.98.11,1.38.21l-.09,1.09Z" fill="#005ca2"/>
  <path d="m292.81,38.43h-.94v-1.05h.94v-1.11l1.27-.46v1.57h1.12v1.05h-1.12v2.58c0,.47.11.91.6.91.23,0,.44-.05.58-.15l.04,1.14c-.27.09-.56.13-.94.13-.99,0-1.54-.7-1.54-1.79v-2.82Z" fill="#005ca2"/>
  <path d="m296.1,37.37h1.27v5.54h-1.27v-5.54Zm0-2.39h1.27v1.38h-1.27v-1.38Z" fill="#005ca2"/>
  <path d="m299.12,38.43h-.94v-1.05h.94v-1.11l1.27-.46v1.57h1.13v1.05h-1.13v2.58c0,.47.11.91.6.91.23,0,.44-.05.58-.15l.04,1.14c-.26.09-.56.13-.94.13-.99,0-1.54-.7-1.54-1.79v-2.82Z" fill="#005ca2"/>
  <path d="m306.86,42.91h-1.2v-.75h-.02c-.39.54-.94.88-1.6.88-1.15,0-1.66-.92-1.66-2.17v-3.49h1.27v2.96c0,.68,0,1.59.82,1.59.92,0,1.12-1.13,1.12-1.84v-2.71h1.27v5.54Z" fill="#005ca2"/>
  <path d="m308.58,38.43h-.94v-1.05h.94v-1.11l1.27-.46v1.57h1.12v1.05h-1.12v2.58c0,.47.11.91.6.91.23,0,.44-.05.58-.15l.04,1.14c-.27.09-.56.13-.94.13-.99,0-1.54-.7-1.54-1.79v-2.82Z" fill="#005ca2"/>
  <path d="m312.74,39.6c.06-.74.42-1.3,1.12-1.3s.99.6,1.03,1.3h-2.16Zm3.01,1.83c-.47.3-1,.56-1.62.56-.79,0-1.33-.51-1.39-1.4h3.37c0-1.94-.51-3.34-2.32-3.34-1.51,0-2.26,1.32-2.26,2.92,0,1.82.94,2.87,2.54,2.87.68,0,1.21-.15,1.67-.44v-1.17Z" fill="#005ca2"/>
</svg>